<?xml version="1.0" standalone="yes"?>
<svg xmlns="http://www.w3.org/2000/svg" width="480" height="455">
<path style="fill:#080402; stroke:none;" d="M0 0L0 209L1 209C1.66598 128.55 63.1614 51.6291 134 19.6944C155.079 10.1917 178.684 2.00125 202 1L183 0L142 0L0 0z"/>
<path style="fill:#f2eac4; stroke:none;" d="M202 0L202 1L210 1L202 0z"/>
<path style="fill:#efbd48; stroke:none;" d="M14 155C8.57869 158.782 6.66712 170.867 8 177L7 184L6 184L6 180L5 180L4 189L5 189L5 185L6 185C4.86469 199.386 2.404 213.491 3.03935 228C4.9639 271.951 21.663 310.924 46 347C65.5312 339.597 86.4466 321.724 103 309C103 330.705 102.689 352.358 102.135 374C101.999 379.3 96.7678 390.13 99.1211 394.621C101.08 398.36 107.508 400.609 111 402.623C123.253 409.695 136.566 414.251 150 418.451C207.023 436.282 269.647 439.267 323 407.547C382.381 372.244 423.437 313.327 435.536 245C438.237 229.748 438.09 214.352 439 199C410.617 195.175 390.121 170.508 364 161L364 159C378.628 154.019 393.089 146.472 407 139.742C410.52 138.038 419.198 135.666 420.709 131.775C421.878 128.765 418.858 123.816 417.816 121C413.688 109.84 405.795 99.7636 399.164 90C377.532 58.1509 343.972 31.1691 308 17.1891C297.481 13.1009 286.372 7.92886 275 7L275 6L283 7L283 6L271 4L271 5L275 5L275 6L266 5L266 4L269 4C252.628 -3.86774 224.606 -0.929352 207 0.830994C145.533 6.97684 90.4618 36.422 50.9205 84C38.6108 98.8117 28.9838 115.634 20.7809 133C17.8078 139.294 12.6257 147.966 14 155z"/>
<path style="fill:#f2eac4; stroke:none;" d="M246 0L246 1L254 1L246 0z"/>
<path style="fill:#080402; stroke:none;" d="M254 0L254 1C309.635 2.14853 366.435 38.3839 401.711 79C414.434 93.6493 421.514 111.941 433.352 126.681C436.529 130.638 446.235 128.742 451 129.9C463.921 133.039 475.25 141.984 479 155L480 155L480 0L254 0z"/>
<path style="fill:#f2eac4; stroke:none;" d="M196 1L196 2L200 2L196 1M257 1L257 2L261 2L257 1M188 2L188 3L192 3L188 2z"/>
<path style="fill:#a65d1f; stroke:none;" d="M255 2L256 3L255 2z"/>
<path style="fill:#f2eac4; stroke:none;" d="M264 2L264 3L269 3L264 2M183 3L183 4L187 4L183 3M269 3L269 4L273 4L269 3M179.667 4.33334L180.333 4.66666L179.667 4.33334z"/>
<path style="fill:#a65d1f; stroke:none;" d="M266 4L266 5L275 6L266 4z"/>
<path style="fill:#f2eac4; stroke:none;" d="M275 4L275 5L278 5L275 4M174 5L174 6L177 6L174 5M280 5L280 6L283 6L280 5M170 6L170 7L173 7L170 6z"/>
<path style="fill:#a65d1f; stroke:none;" d="M275 6L275 7C323.786 13.5748 373.087 52.4978 399.836 92C407.957 103.993 419.547 118.075 421 133L434 130C414.51 83.186 373.569 46.0349 329 23.7531C312.992 15.7499 293.137 6.79083 275 6z"/>
<path style="fill:#f2eac4; stroke:none;" d="M283 6L283 7L286 7L283 6M166 7L166 8L169 8L166 7z"/>
<path style="fill:#efbd48; stroke:none;" d="M284 7L284 8L291 9L284 7z"/>
<path style="fill:#f2eac4; stroke:none;" d="M288.667 7.33334L289.333 7.66666L288.667 7.33334M163.667 8.33334L164.333 8.66666L163.667 8.33334M291 8L291 9L297 10L297 9L291 8M160.667 9.33334L161.333 9.66666L160.667 9.33334z"/>
<path style="fill:#efbd48; stroke:none;" d="M292.667 9.33334L293.333 9.66666L292.667 9.33334z"/>
<path style="fill:#f2eac4; stroke:none;" d="M157.667 10.3333L158.333 10.6667L157.667 10.3333z"/>
<path style="fill:#efbd48; stroke:none;" d="M295 10L295 11L301 12L301 11L295 10z"/>
<path style="fill:#f2eac4; stroke:none;" d="M298.667 10.3333L299.333 10.6667L298.667 10.3333M153 11L153 12L156 12L153 11M301 11L301 12L306 13L306 12L301 11M151.667 12.3333L152.333 12.6667L151.667 12.3333z"/>
<path style="fill:#efbd48; stroke:none;" d="M302 12L303 13L302 12z"/>
<path style="fill:#f2eac4; stroke:none;" d="M148.667 13.3333L149.333 13.6667L148.667 13.3333z"/>
<path style="fill:#efbd48; stroke:none;" d="M304 13L304 14L309 15L309 14L304 13z"/>
<path style="fill:#f2eac4; stroke:none;" d="M307 13L308 14L307 13M145.667 14.3333L146.333 14.6667L145.667 14.3333M309.667 14.3333L310.333 14.6667L309.667 14.3333M143.667 15.3333L144.333 15.6667L143.667 15.3333z"/>
<path style="fill:#efbd48; stroke:none;" d="M310 15L310 16L314 17L314 16L310 15z"/>
<path style="fill:#f2eac4; stroke:none;" d="M312.667 15.3333L313.333 15.6667L312.667 15.3333M141 16L142 17L141 16M314.667 16.3333L315.333 16.6667L314.667 16.3333M138.667 17.3333L139.333 17.6667L138.667 17.3333z"/>
<path style="fill:#efbd48; stroke:none;" d="M315 17L315 18L319 19L319 18L315 17z"/>
<path style="fill:#f2eac4; stroke:none;" d="M317.667 17.3333L318.333 17.6667L317.667 17.3333M136.667 18.3333L137.333 18.6667L136.667 18.3333M319 18L319 19L323 20L323 19L319 18M134 19L135 20L134 19z"/>
<path style="fill:#efbd48; stroke:none;" d="M320 19L321 20L320 19z"/>
<path style="fill:#f2eac4; stroke:none;" d="M132 20L133 21L132 20z"/>
<path style="fill:#efbd48; stroke:none;" d="M322 20L322 21L337 28L337 27L322 20z"/>
<path style="fill:#f2eac4; stroke:none;" d="M324 20L325 21L324 20M129.667 21.3333L130.333 21.6667L129.667 21.3333M326 21L327 22L326 21M127.667 22.3333L128.333 22.6667L127.667 22.3333M328 22L329 23L328 22M125.667 23.3333L126.333 23.6667L125.667 23.3333M330 23L331 24L330 23M123.667 24.3333L124.333 24.6667L123.667 24.3333M40 259L45.1111 263.083L61 266L73 265C74.8117 263.499 75.0224 263.842 76 266L96 266L100 271L109 266L110 266L117 271L118 271L121 272L127 269C124.823 278.52 121.406 287.682 130 295C123.743 281.262 138.174 259.076 143.4 246C145.734 240.159 149.186 232.244 145.972 226.015C143.204 220.651 137.36 219.551 132 218.576C120.074 216.405 107.97 215.207 96 213.246C92.0403 212.598 79.7362 211.209 80.6312 205.029C81.6373 198.08 98.7764 197.474 104 196.729C121.851 194.184 140.138 194.522 158 196.715C165.757 197.668 174.359 198.288 179.566 205.043C184.04 210.846 181.445 218.914 178.986 225C173.208 239.304 165.864 253.148 157.333 266C151.096 275.396 142.877 289.774 132 294L132 295C144.288 292.783 156.026 279.378 162 269L163 269L170 269L172 273L206 254.4L262 222.19L296 203L294 197L299 195L298 191C309.723 190.903 327.407 187.675 335 178C309.835 187.002 283.343 186.803 257 184.169C245.919 183.061 230.689 180.54 232.174 166C234.384 144.371 252.372 119.771 265.13 103C267.929 99.3217 277.733 84.722 283.566 88.0857C289.296 91.3898 282.992 102.881 281.424 107C276.873 118.958 271.037 130.709 267.439 143C265.795 148.616 265.813 155.164 271.109 158.856C282.246 166.62 303.849 165.385 317 167.424C324.121 168.529 332.7 168.997 335 177L336 177C334.785 165.214 324.129 163.934 315 160L319 158L318 154L322 153L320 151L329 140L329 127C334.642 123.975 336.417 118.937 334 113L342 109L344 102L347 90L350 89C346.494 68.791 323.794 53.9545 307.039 45.0833C259.783 20.0615 204.578 18.8868 155 37.4244C84.1047 63.9328 32.8387 131.887 30.054 208C29.6942 217.834 30.056 227.859 32.5802 237.424C34.4879 244.654 39.0113 251.729 40 259M332 24L333 25L332 24M122 25L123 26L122 25M334 25L335 26L334 25M120 26L121 27L120 26M336 26L337 27L336 26M118 27L119 28L118 27M337 27L337 28L344 31L344 30L337 27M116 28L117 29L116 28z"/>
<path style="fill:#efbd48; stroke:none;" d="M338 28L339 29L338 28z"/>
<path style="fill:#f2eac4; stroke:none;" d="M114.667 29.3333L115.333 29.6667L114.667 29.3333z"/>
<path style="fill:#efbd48; stroke:none;" d="M340 29L341 30L340 29z"/>
<path style="fill:#f2eac4; stroke:none;" d="M113 30L114 31L113 30z"/>
<path style="fill:#efbd48; stroke:none;" d="M342 30L343 31L342 30z"/>
<path style="fill:#f2eac4; stroke:none;" d="M111 31L112 32L111 31z"/>
<path style="fill:#efbd48; stroke:none;" d="M343 31L343 32L346 33L343 31z"/>
<path style="fill:#f2eac4; stroke:none;" d="M345 31L346 32L345 31M109.667 32.3333L110.333 32.6667L109.667 32.3333M346 32L346 33L349 34L346 32M108 33L109 34L108 33z"/>
<path style="fill:#efbd48; stroke:none;" d="M347 33L348 34L347 33z"/>
<path style="fill:#f2eac4; stroke:none;" d="M106 34L107 35L106 34z"/>
<path style="fill:#efbd48; stroke:none;" d="M348 34L348 35L351 36L348 34z"/>
<path style="fill:#f2eac4; stroke:none;" d="M350 34L351 35L350 34M104.667 35.3333L105.333 35.6667L104.667 35.3333M351 35L352 36L351 35M103 36L104 37L103 36z"/>
<path style="fill:#efbd48; stroke:none;" d="M352 36L354 38L352 36z"/>
<path style="fill:#f2eac4; stroke:none;" d="M353 36L354 37L353 36M101.667 37.3333L102.333 37.6667L101.667 37.3333M354 37L355 38L354 37M100 38L101 39L100 38z"/>
<path style="fill:#efbd48; stroke:none;" d="M355 38L357 40L355 38z"/>
<path style="fill:#f2eac4; stroke:none;" d="M356 38L357 39L356 38M98.6667 39.3333L99.3333 39.6667L98.6667 39.3333M357 39L358 40L357 39M97 40L98 41L97 40z"/>
<path style="fill:#efbd48; stroke:none;" d="M358 40L361 43L358 40z"/>
<path style="fill:#f2eac4; stroke:none;" d="M359 40L360 41L359 40M96 41L97 42L96 41M360 41L361 42L360 41M94 42L95 43L94 42M361 42L361 43L365 45L361 42M93 43L94 44L93 43z"/>
<path style="fill:#efbd48; stroke:none;" d="M362 43L363 44L362 43z"/>
<path style="fill:#f2eac4; stroke:none;" d="M91.6667 44.3333L92.3333 44.6667L91.6667 44.3333z"/>
<path style="fill:#efbd48; stroke:none;" d="M363 44L364 45L363 44z"/>
<path style="fill:#f2eac4; stroke:none;" d="M90 45L91 46L90 45z"/>
<path style="fill:#efbd48; stroke:none;" d="M365 45L368 48L365 45z"/>
<path style="fill:#f2eac4; stroke:none;" d="M366 45L367 46L366 45M89 46L90 47L89 46M367 46L368 47L367 46M88 47L89 48L88 47M368 47L369 48L368 47M86 48L87 49L86 48M369 48L369 49L374 52L369 48M85 49L86 50L85 49z"/>
<path style="fill:#efbd48; stroke:none;" d="M370 49L371 50L370 49z"/>
<path style="fill:#f2eac4; stroke:none;" d="M84 50L85 51L84 50z"/>
<path style="fill:#efbd48; stroke:none;" d="M371 50L372 51L371 50z"/>
<path style="fill:#f2eac4; stroke:none;" d="M82.6667 51.3333L83.3333 51.6667L82.6667 51.3333z"/>
<path style="fill:#efbd48; stroke:none;" d="M372 51L373 52L372 51z"/>
<path style="fill:#f2eac4; stroke:none;" d="M81 52L82 53L81 52M374 52L375 53L374 52M80 53L81 54L80 53z"/>
<path style="fill:#efbd48; stroke:none;" d="M375 53L380 58L375 53z"/>
<path style="fill:#f2eac4; stroke:none;" d="M376 53L377 54L376 53M79 54L80 55L79 54M377 54L378 55L377 54M78 55L79 56L78 55M378 55L379 56L378 55M77 56L78 57L77 56M379 56L380 57L379 56M74 59L77 57L74 59M380 57L381 58L380 57M381 58L382 59L381 58M73 59L74 60L73 59M382 59L383 60L382 59M72 60L73 61L72 60z"/>
<path style="fill:#efbd48; stroke:none;" d="M383 60L384 61L383 60z"/>
<path style="fill:#f2eac4; stroke:none;" d="M71 61L72 62L71 61z"/>
<path style="fill:#efbd48; stroke:none;" d="M384 61L385 62L384 61z"/>
<path style="fill:#f2eac4; stroke:none;" d="M70 62L71 63L70 62z"/>
<path style="fill:#efbd48; stroke:none;" d="M385 62L394 71L385 62z"/>
<path style="fill:#f2eac4; stroke:none;" d="M386 62L387 63L386 62M69 63L70 64L69 63M387 63L388 64L387 63M68 64L69 65L68 64M388 64L389 65L388 64M67 65L68 66L67 65M389 65L390 66L389 65M66 66L67 67L66 66M390 66L391 67L390 66M65 67L66 68L65 67M391 67L392 68L391 67M64 68L65 69L64 68M392 68L393 69L392 68M63 69L64 70L63 69M393 69L394 70L393 69M62 70L63 71L62 70M61 71L62 72L61 71z"/>
<path style="fill:#efbd48; stroke:none;" d="M394 71L395 72L394 71z"/>
<path style="fill:#f2eac4; stroke:none;" d="M60 72L61 73L60 72z"/>
<path style="fill:#efbd48; stroke:none;" d="M395 72L396 73L395 72z"/>
<path style="fill:#f2eac4; stroke:none;" d="M59 73L60 74L59 73M396 73L397 74L396 73M397 74L398 75L397 74M58 75L59 76L58 75M398 75L403 80L398 75M57 76L58 77L57 76z"/>
<path style="fill:#efbd48; stroke:none;" d="M398 76L399 77L398 76z"/>
<path style="fill:#f2eac4; stroke:none;" d="M56 77L57 78L56 77z"/>
<path style="fill:#efbd48; stroke:none;" d="M399 77L400 78L399 77z"/>
<path style="fill:#f2eac4; stroke:none;" d="M55 78L56 79L55 78z"/>
<path style="fill:#efbd48; stroke:none;" d="M400 78L401 79L400 78z"/>
<path style="fill:#f2eac4; stroke:none;" d="M54 79L55 80L54 79z"/>
<path style="fill:#efbd48; stroke:none;" d="M401 79L402 80L401 79z"/>
<path style="fill:#f2eac4; stroke:none;" d="M53 80L54 81L53 80z"/>
<path style="fill:#efbd48; stroke:none;" d="M402 80L403 81L402 80z"/>
<path style="fill:#f2eac4; stroke:none;" d="M52.3333 81.6667L52.6667 82.3333L52.3333 81.6667M403 81L404 82L403 81M404 82L407 85L404 82M51 83L52 84L51 83z"/>
<path style="fill:#efbd48; stroke:none;" d="M404 83L405 84L404 83z"/>
<path style="fill:#f2eac4; stroke:none;" d="M50 84L51 85L50 84z"/>
<path style="fill:#efbd48; stroke:none;" d="M405 84L406 85L405 84z"/>
<path style="fill:#f2eac4; stroke:none;" d="M49 85L50 86L49 85z"/>
<path style="fill:#efbd48; stroke:none;" d="M406 85L407 86L406 85z"/>
<path style="fill:#f2eac4; stroke:none;" d="M48 86L49 87L48 86M407 86L408 87L407 86z"/>
<path style="fill:#efbd48; stroke:none;" d="M278 89L281 88L278 89z"/>
<path style="fill:#a65d1f; stroke:none;" d="M280.941 87.8009C274.076 88.9894 268.022 98.8821 264.13 104C253.001 118.638 243.805 135.1 236.579 152C233.809 158.478 229.862 167.015 233.318 173.995C237.516 182.475 249.7 183.458 258 184.025C279.183 185.471 310.302 189.562 329.98 179.431C340.035 174.255 327.146 169.415 322 168.464C309.47 166.148 296.625 164.755 284 163C277.206 162.056 269.499 160.208 266.742 152.999C264.575 147.332 267.729 141.179 269.8 136C274.191 125.021 278.655 114.071 282.807 103C283.947 99.9599 288.135 86.5556 280.941 87.8009z"/>
<path style="fill:#efbd48; stroke:none;" d="M284 87L285 88L284 87z"/>
<path style="fill:#f2eac4; stroke:none;" d="M408 87L411 90L408 87M47 88L48 89L47 88z"/>
<path style="fill:#080402; stroke:none;" d="M281 88L281 89L284 89L281 88z"/>
<path style="fill:#efbd48; stroke:none;" d="M408 88L409 89L408 88z"/>
<path style="fill:#f2eac4; stroke:none;" d="M46 89L47 90L46 89z"/>
<path style="fill:#efbd48; stroke:none;" d="M285 89L285 96L286 96L285 89M409 89L410 90L409 89z"/>
<path style="fill:#f2eac4; stroke:none;" d="M45 90L46 91L45 90z"/>
<path style="fill:#efbd48; stroke:none;" d="M275 90L276 91L275 90M410 90L411 91L410 90z"/>
<path style="fill:#f2eac4; stroke:none;" d="M411 91L413 95L414 95L411 91M44 92L45 93L44 92z"/>
<path style="fill:#efbd48; stroke:none;" d="M411 92L412 93L411 92z"/>
<path style="fill:#f2eac4; stroke:none;" d="M43 93L44 94L43 93z"/>
<path style="fill:#efbd48; stroke:none;" d="M412 93L413 94L412 93z"/>
<path style="fill:#f2eac4; stroke:none;" d="M42.3333 94.6667L42.6667 95.3333L42.3333 94.6667z"/>
<path style="fill:#efbd48; stroke:none;" d="M271 95L272 96L271 95z"/>
<path style="fill:#f2eac4; stroke:none;" d="M414 95L416 97L414 95M41 96L42 97L41 96z"/>
<path style="fill:#efbd48; stroke:none;" d="M270 96L271 97L270 96z"/>
<path style="fill:#080402; stroke:none;" d="M283.333 96.6667L283.667 97.3333L283.333 96.6667z"/>
<path style="fill:#efbd48; stroke:none;" d="M414 96L415 97L414 96z"/>
<path style="fill:#f2eac4; stroke:none;" d="M40 97L41 98L40 97z"/>
<path style="fill:#efbd48; stroke:none;" d="M269 97L270 98L269 97M415 97L416 98L415 97M268 98L269 99L268 98M284.333 98.6667L284.667 99.3333L284.333 98.6667z"/>
<path style="fill:#f2eac4; stroke:none;" d="M416 98L418 100L416 98M39 99L40 100L39 99z"/>
<path style="fill:#efbd48; stroke:none;" d="M267 99L268 100L267 99M416 99L417 100L416 99z"/>
<path style="fill:#f2eac4; stroke:none;" d="M38 100L39 101L38 100z"/>
<path style="fill:#efbd48; stroke:none;" d="M417 100L418 101L417 100M283 101L284 102L283 101z"/>
<path style="fill:#f2eac4; stroke:none;" d="M418 101L420 103L418 101M37 102L38 103L37 102z"/>
<path style="fill:#efbd48; stroke:none;" d="M265 102L266 103L265 102M418 102L419 103L418 102z"/>
<path style="fill:#f2eac4; stroke:none;" d="M36.3333 103.667L36.6667 104.333L36.3333 103.667z"/>
<path style="fill:#efbd48; stroke:none;" d="M264 103L265 104L264 103M282.333 103.667L282.667 104.333L282.333 103.667M419 103L420 104L419 103z"/>
<path style="fill:#f2eac4; stroke:none;" d="M420 104L422 106L420 104M35 105L36 106L35 105z"/>
<path style="fill:#efbd48; stroke:none;" d="M420 105L421 106L420 105M262 106L263 107L262 106M281 106L282 107L281 106M421 106L422 107L421 106z"/>
<path style="fill:#f2eac4; stroke:none;" d="M34 107L35 108L34 107z"/>
<path style="fill:#efbd48; stroke:none;" d="M261 107L262 108L261 107z"/>
<path style="fill:#f2eac4; stroke:none;" d="M422 107L424 111L425 111L422 107M33 108L34 109L33 108z"/>
<path style="fill:#efbd48; stroke:none;" d="M422 108L423 109L422 108M280 109L281 110L280 109z"/>
<path style="fill:#f2eac4; stroke:none;" d="M32 110L33 111L32 110z"/>
<path style="fill:#efbd48; stroke:none;" d="M259 110L260 111L259 110M423 110L424 111L423 110z"/>
<path style="fill:#f2eac4; stroke:none;" d="M31.3333 111.667L31.6667 112.333L31.3333 111.667z"/>
<path style="fill:#efbd48; stroke:none;" d="M279.333 111.667L279.667 112.333L279.333 111.667M424 111L425 112L424 111z"/>
<path style="fill:#f2eac4; stroke:none;" d="M425 112L426 113L425 112M30 113L31 114L30 113z"/>
<path style="fill:#efbd48; stroke:none;" d="M257 113L258 114L257 113M425 113L426 114L425 113M278 114L279 115L278 114z"/>
<path style="fill:#f2eac4; stroke:none;" d="M426 114L428 116L426 114M29 115L30 116L29 115z"/>
<path style="fill:#efbd48; stroke:none;" d="M426 115L427 116L426 115M255 116L256 117L255 116M277 116L278 117L277 116M427 116L429 119L427 116z"/>
<path style="fill:#f2eac4; stroke:none;" d="M28 117L29 118L28 117M428 117L429 118L428 117M27.3333 118.667L27.6667 119.333L27.3333 118.667z"/>
<path style="fill:#efbd48; stroke:none;" d="M253 119L254 120L253 119M276 119L277 120L276 119z"/>
<path style="fill:#f2eac4; stroke:none;" d="M429 119L430 120L429 119M26.3333 120.667L26.6667 121.333L26.3333 120.667z"/>
<path style="fill:#efbd48; stroke:none;" d="M429 120L430 121L429 120M252 121L253 122L252 121M275 121L276 122L275 121z"/>
<path style="fill:#f2eac4; stroke:none;" d="M430 121L431 122L430 121M25.3333 122.667L25.6667 123.333L25.3333 122.667z"/>
<path style="fill:#efbd48; stroke:none;" d="M251 122L252 123L251 122M430 122L431 123L430 122z"/>
<path style="fill:#f2eac4; stroke:none;" d="M431 123L432 124L431 123M24.3333 124.667L24.6667 125.333L24.3333 124.667z"/>
<path style="fill:#efbd48; stroke:none;" d="M250 124L251 125L250 124M274 124L275 125L274 124M431 124L432 125L431 124z"/>
<path style="fill:#f2eac4; stroke:none;" d="M432 125L433 126L432 125M23.3333 126.667L23.6667 127.333L23.3333 126.667z"/>
<path style="fill:#efbd48; stroke:none;" d="M249 126L250 127L249 126M273.333 126.667L273.667 127.333L273.333 126.667M432 126L433 127L432 126z"/>
<path style="fill:#f2eac4; stroke:none;" d="M433 127L434 128L433 127M22.3333 128.667L22.6667 129.333L22.3333 128.667z"/>
<path style="fill:#efbd48; stroke:none;" d="M248 128L249 129L248 128M433 128L434 129L433 128z"/>
<path style="fill:#f2eac4; stroke:none;" d="M439 128L439 129L442 129L439 128z"/>
<path style="fill:#efbd48; stroke:none;" d="M247 129L248 130L247 129M272 129L273 130L272 129z"/>
<path style="fill:#f2eac4; stroke:none;" d="M434 129L435 130L434 129z"/>
<path style="fill:#44afd7; stroke:none;" d="M364 159L364 161C385.872 172.52 409.086 193.964 434 197.572C446.5 199.382 461.416 196.933 470.674 187.674C485.717 172.631 481.634 146.356 464 135.468C433.43 116.593 391.733 145.859 364 159z"/>
<path style="fill:#f2eac4; stroke:none;" d="M446 129L446 130L450 130L446 129M21.3333 130.667L21.6667 131.333L21.3333 130.667M452.667 130.333L453.333 130.667L452.667 130.333z"/>
<path style="fill:#efbd48; stroke:none;" d="M246 131L247 132L246 131M271 131L272 132L271 131z"/>
<path style="fill:#f2eac4; stroke:none;" d="M455.667 131.333L456.333 131.667L455.667 131.333M20.3333 132.667L20.6667 133.333L20.3333 132.667M458 132L459 133L458 132z"/>
<path style="fill:#efbd48; stroke:none;" d="M245 133L246 134L245 133z"/>
<path style="fill:#f2eac4; stroke:none;" d="M460.667 133.333L461.333 133.667L460.667 133.333z"/>
<path style="fill:#efbd48; stroke:none;" d="M270 134L271 135L270 134z"/>
<path style="fill:#f2eac4; stroke:none;" d="M462 134L463 135L462 134M19 135L20 136L19 135z"/>
<path style="fill:#efbd48; stroke:none;" d="M244 135L245 136L244 135z"/>
<path style="fill:#a65d1f; stroke:none;" d="M415 135L416 136L415 135z"/>
<path style="fill:#f2eac4; stroke:none;" d="M464 135L465 136L464 135z"/>
<path style="fill:#efbd48; stroke:none;" d="M269.333 136.667L269.667 137.333L269.333 136.667z"/>
<path style="fill:#a65d1f; stroke:none;" d="M413 136L414 137L413 136z"/>
<path style="fill:#f2eac4; stroke:none;" d="M465 136L466 137L465 136M18.3333 137.667L18.6667 138.333L18.3333 137.667z"/>
<path style="fill:#efbd48; stroke:none;" d="M243 137L244 138L243 137z"/>
<path style="fill:#a65d1f; stroke:none;" d="M411 137L412 138L411 137z"/>
<path style="fill:#f2eac4; stroke:none;" d="M467 137L468 138L467 137M468 138L469 139L468 138M17.3333 139.667L17.6667 140.333L17.3333 139.667z"/>
<path style="fill:#efbd48; stroke:none;" d="M242 139L243 140L242 139M268 139L269 140L268 139z"/>
<path style="fill:#f2eac4; stroke:none;" d="M469 139L470 140L469 139M470 140L471 141L470 140z"/>
<path style="fill:#efbd48; stroke:none;" d="M241 141L242 142L241 141M267.333 141.667L267.667 142.333L267.333 141.667z"/>
<path style="fill:#f2eac4; stroke:none;" d="M471 141L472 142L471 141M16 142L17 143L16 142M472 142L473 143L472 142z"/>
<path style="fill:#efbd48; stroke:none;" d="M240 143L241 144L240 143z"/>
<path style="fill:#f2eac4; stroke:none;" d="M473 143L474 144L473 143M15.3333 144.667L15.6667 145.333L15.3333 144.667z"/>
<path style="fill:#a65d1f; stroke:none;" d="M17 144L18 145L17 144z"/>
<path style="fill:#efbd48; stroke:none;" d="M266 144L266 147L267 147L266 144z"/>
<path style="fill:#f2eac4; stroke:none;" d="M474.333 144.667L474.667 145.333L474.333 144.667z"/>
<path style="fill:#efbd48; stroke:none;" d="M239 145L240 146L239 145z"/>
<path style="fill:#a65d1f; stroke:none;" d="M16 146L17 147L16 146z"/>
<path style="fill:#f2eac4; stroke:none;" d="M475 146L476 147L475 146M14.3333 147.667L14.6667 148.333L14.3333 147.667z"/>
<path style="fill:#efbd48; stroke:none;" d="M238 147L239 148L238 147z"/>
<path style="fill:#f2eac4; stroke:none;" d="M476 148L477 149L476 148z"/>
<path style="fill:#a65d1f; stroke:none;" d="M15.3333 149.667L15.6667 150.333L15.3333 149.667z"/>
<path style="fill:#efbd48; stroke:none;" d="M237 149L238 150L237 149z"/>
<path style="fill:#f2eac4; stroke:none;" d="M410 149.464C404.281 150.474 386.785 153.673 386.037 161.003C385.658 164.718 390.354 167.044 393.001 168.571C400.748 173.039 410.874 177.316 420 175.671C428.311 174.172 434.712 160.566 429.258 153.225C425.292 147.886 415.8 148.439 410 149.464M13 150L14 151L13 150M477.333 150.667L477.667 151.333L477.333 150.667z"/>
<path style="fill:#efbd48; stroke:none;" d="M236.333 151.667L236.667 152.333L236.333 151.667M266 151L266 154L267 154L266 151z"/>
<path style="fill:#f2eac4; stroke:none;" d="M12 152L12 155L13 155L12 152z"/>
<path style="fill:#a65d1f; stroke:none;" d="M14 152L15 153L14 152z"/>
<path style="fill:#f2eac4; stroke:none;" d="M478 152L478 155L479 155L478 152z"/>
<path style="fill:#a65d1f; stroke:none;" d="M13 154L14 155L13 154z"/>
<path style="fill:#efbd48; stroke:none;" d="M235 154L236 155L235 154z"/>
<path style="fill:#f2eac4; stroke:none;" d="M11.3333 155.667L11.6667 156.333L11.3333 155.667z"/>
<path style="fill:#efbd48; stroke:none;" d="M267 155L268 156L267 155z"/>
<path style="fill:#f2eac4; stroke:none;" d="M479 155L479 158L480 158L479 155z"/>
<path style="fill:#efbd48; stroke:none;" d="M234 156L235 157L234 156M270 158L271 159L270 158z"/>
<path style="fill:#f2eac4; stroke:none;" d="M10.3333 159.667L10.6667 160.333L10.3333 159.667z"/>
<path style="fill:#efbd48; stroke:none;" d="M233 159L234 160L233 159M271 159L272 160L271 159M273 160L274 161L273 160z"/>
<path style="fill:#f2eac4; stroke:none;" d="M9 161L9 164L10 164L9 161z"/>
<path style="fill:#a65d1f; stroke:none;" d="M11.3333 161.667L11.6667 162.333L11.3333 161.667z"/>
<path style="fill:#efbd48; stroke:none;" d="M275 161L275 162L278 162L275 161M280 162L280 163L283 163L280 162M232 163L233 164L232 163M287.667 163.333L288.333 163.667L287.667 163.333z"/>
<path style="fill:#a65d1f; stroke:none;" d="M10 164L11 165L10 164z"/>
<path style="fill:#efbd48; stroke:none;" d="M293 164L293 165L298 165L293 164z"/>
<path style="fill:#f2eac4; stroke:none;" d="M8.33333 165.667L8.66667 166.333L8.33333 165.667z"/>
<path style="fill:#efbd48; stroke:none;" d="M301 165L301 166L304 166L301 165M308 166L308 167L311 167L308 166M314 167L314 168L318 168L314 167z"/>
<path style="fill:#a65d1f; stroke:none;" d="M9 168L9 171L10 171L9 168z"/>
<path style="fill:#efbd48; stroke:none;" d="M322.667 168.333L323.333 168.667L322.667 168.333z"/>
<path style="fill:#f2eac4; stroke:none;" d="M7.33333 169.667L7.66667 170.333L7.33333 169.667z"/>
<path style="fill:#efbd48; stroke:none;" d="M326 169L326 170L329 170L326 169M329.667 170.333L330.333 170.667L329.667 170.333z"/>
<path style="fill:#f2eac4; stroke:none;" d="M479 170L479 173L480 173L479 170z"/>
<path style="fill:#efbd48; stroke:none;" d="M332 171L333 172L332 171z"/>
<path style="fill:#f2eac4; stroke:none;" d="M6 172L6 176L7 176L6 172z"/>
<path style="fill:#a65d1f; stroke:none;" d="M8.33333 172.667L8.66667 173.333L8.33333 172.667z"/>
<path style="fill:#efbd48; stroke:none;" d="M232.333 172.667L232.667 173.333L232.333 172.667z"/>
<path style="fill:#080402; stroke:none;" d="M330 172L331 173L330 172z"/>
<path style="fill:#efbd48; stroke:none;" d="M333 172L334 173L333 172M334 173L335 174L334 173z"/>
<path style="fill:#080402; stroke:none;" d="M479 173C477.036 180.123 473.033 186.576 466.985 190.957C463.954 193.152 456.274 195.27 455.407 199.225C453.07 209.887 457.13 225.721 456.996 237C456.777 255.386 452.598 274.394 447.573 292C424.142 374.089 343.191 450.213 255 454L255 455L480 455L480 256L480 199L479 173z"/>
<path style="fill:#f2eac4; stroke:none;" d="M478.333 174.667L478.667 175.333L478.333 174.667z"/>
<path style="fill:#a65d1f; stroke:none;" d="M7.33333 175.667L7.66667 176.333L7.33333 175.667z"/>
<path style="fill:#efbd48; stroke:none;" d="M233 175L234 176L233 175z"/>
<path style="fill:#f2eac4; stroke:none;" d="M5 176L5 180L6 180L5 176z"/>
<path style="fill:#efbd48; stroke:none;" d="M234 176L235 177L234 176z"/>
<path style="fill:#f2eac4; stroke:none;" d="M477.333 176.667L477.667 177.333L477.333 176.667z"/>
<path style="fill:#efbd48; stroke:none;" d="M235 177L236 178L235 177M236 178L237 179L236 178M332 178L333 179L332 178z"/>
<path style="fill:#a65d1f; stroke:none;" d="M6 179L6 184L7 184L6 179z"/>
<path style="fill:#efbd48; stroke:none;" d="M237 179L238 180L237 179M330.667 179.333L331.333 179.667L330.667 179.333z"/>
<path style="fill:#f2eac4; stroke:none;" d="M476.333 179.667L476.667 180.333L476.333 179.667z"/>
<path style="fill:#efbd48; stroke:none;" d="M239.667 180.333L240.333 180.667L239.667 180.333M327 180L327 181L330 181L327 180M242 181L243 182L242 181M323 181L323 182L327 182L323 181z"/>
<path style="fill:#f2eac4; stroke:none;" d="M475 181L476 182L475 181M4.33333 182.667L4.66667 183.333L4.33333 182.667z"/>
<path style="fill:#efbd48; stroke:none;" d="M245.667 182.333L246.333 182.667L245.667 182.333M318 182L318 183L321 183L318 182z"/>
<path style="fill:#a65d1f; stroke:none;" d="M374 182.693C366.804 184.585 361.352 192.994 356 197.715C341.686 210.339 327.846 223.342 313 235.389C274.593 266.553 232.224 290.14 186 307.575C169.256 313.89 152.208 319.516 135 324.421C128.905 326.159 118.809 326.922 115.461 333.105C112.676 338.246 116.048 344.003 119.329 348C126.677 356.949 135.745 364.509 145 371.37C182.535 399.195 232.045 408.117 277 396.265C333.342 381.412 382.182 334.707 392.246 276C396.426 251.617 396.15 227.062 390.127 203C388.297 195.69 384.682 179.885 374 182.693z"/>
<path style="fill:#f2eac4; stroke:none;" d="M474.333 182.667L474.667 183.333L474.333 182.667z"/>
<path style="fill:#efbd48; stroke:none;" d="M249 183L249 184L253 184L249 183M311 183L311 184L316 184L311 183z"/>
<path style="fill:#080402; stroke:none;" d="M375 183L375 184L383 188L375 183z"/>
<path style="fill:#efbd48; stroke:none;" d="M259 184L259 185L263 185L259 184M303 184L303 185L308 185L303 184z"/>
<path style="fill:#080402; stroke:none;" d="M371 186L374 185L371 186z"/>
<path style="fill:#f2eac4; stroke:none;" d="M473 184L474 185L473 184z"/>
<path style="fill:#a65d1f; stroke:none;" d="M5 185C-0.763958 230.568 0.726934 274.101 19.1505 317C24.3601 329.131 30.6615 346.434 41 355L47 348L47 347C23.08 315.881 8.06277 277.943 4.16898 239C2.91541 226.463 3.21083 214.537 4.08951 202C4.46182 196.688 6.9666 190.038 5 185z"/>
<path style="fill:#efbd48; stroke:none;" d="M270 185L270 186L296 186L270 185z"/>
<path style="fill:#f2eac4; stroke:none;" d="M472 185L473 186L472 185M3 186L3 191L4 191L3 186z"/>
<path style="fill:#080402; stroke:none;" d="M369 186L364 192L369 186z"/>
<path style="fill:#f2eac4; stroke:none;" d="M471 187L472 188L471 187z"/>
<path style="fill:#a65d1f; stroke:none;" d="M411 188L412 189L411 188z"/>
<path style="fill:#f2eac4; stroke:none;" d="M470 188L471 189L470 188M468.667 189.333L469.333 189.667L468.667 189.333M467 190L468 191L467 190z"/>
<path style="fill:#efbd48; stroke:none;" d="M3 191L3 196L4 196L3 191z"/>
<path style="fill:#f2eac4; stroke:none;" d="M465.667 191.333L466.333 191.667L465.667 191.333M2 192L2 197L3 197L2 192z"/>
<path style="fill:#a65d1f; stroke:none;" d="M418 192L419 193L418 192z"/>
<path style="fill:#f2eac4; stroke:none;" d="M464 192L465 193L464 192z"/>
<path style="fill:#a65d1f; stroke:none;" d="M420 193L421 194L420 193z"/>
<path style="fill:#f2eac4; stroke:none;" d="M462.667 193.333L463.333 193.667L462.667 193.333z"/>
<path style="fill:#a65d1f; stroke:none;" d="M422 194L423 195L422 194z"/>
<path style="fill:#f2eac4; stroke:none;" d="M460.667 194.333L461.333 194.667L460.667 194.333z"/>
<path style="fill:#efbd48; stroke:none;" d="M117 195L117 196L127 196L117 195z"/>
<path style="fill:#a65d1f; stroke:none;" d="M130 294C142.35 290.878 150.685 276.016 157.333 266C163.041 257.4 168.242 248.293 172.742 239C176.859 230.497 185.077 216.627 180.566 207.004C177.277 199.987 168.908 198.431 162 197.428C145.147 194.981 125.901 194.178 109 196.424C103.901 197.102 79.1429 198.051 80.037 205.939C80.7105 211.881 92.6837 212.406 97 213C109.948 214.783 125.769 214.888 138 219.563C143.676 221.733 148.374 226.616 147.8 233C146.62 246.12 137.668 260.829 132.8 273C130.079 279.803 126.654 286.925 130 294z"/>
<path style="fill:#efbd48; stroke:none;" d="M130 195L130 196L145 196L130 195z"/>
<path style="fill:#a65d1f; stroke:none;" d="M425 195L426 196L425 195z"/>
<path style="fill:#f2eac4; stroke:none;" d="M457 195L457 196L460 196L457 195z"/>
<path style="fill:#efbd48; stroke:none;" d="M105 196L105 197L109 197L105 196M153 196L153 197L157 197L153 196z"/>
<path style="fill:#080402; stroke:none;" d="M359 196L360 197L359 196z"/>
<path style="fill:#44afd7; stroke:none;" d="M362 210C366.088 207.121 373.013 197.195 378 202L379 202L377 196L362 210z"/>
<path style="fill:#f2eac4; stroke:none;" d="M455.667 196.333L456.333 196.667L455.667 196.333z"/>
<path style="fill:#efbd48; stroke:none;" d="M2 197L1 215L2 215L2 197M98 197L98 198L101 198L98 197M162 197L162 198L166 198L162 197z"/>
<path style="fill:#a65d1f; stroke:none;" d="M431 197L431 198L434 198L431 197M435 198L435 199L439 199C436.226 216.428 438.342 234.515 433.715 252C427.61 275.065 420.199 299.04 408.688 320C380.724 370.918 333.298 408.481 278 425.492C233.286 439.246 179.448 431.897 137 413.627C127.024 409.333 117.515 405.813 108 400.35C103.365 397.688 98.8113 395.879 99 390L98 390L88 407C126.305 434.515 168.653 451.668 216 454.91C306.879 461.134 396.87 406.382 434.691 324C453.495 283.043 457.497 241.309 454 197L435 198z"/>
<path style="fill:#f2eac4; stroke:none;" d="M454 197L455 198L454 197z"/>
<path style="fill:#efbd48; stroke:none;" d="M93.6667 198.333L94.3333 198.667L93.6667 198.333M168.667 198.333L169.333 198.667L168.667 198.333z"/>
<path style="fill:#080402; stroke:none;" d="M357 198L358 199L357 198z"/>
<path style="fill:#efbd48; stroke:none;" d="M454 198L454 202L455 202L454 198M88.6667 199.333L89.3333 199.667L88.6667 199.333M171.667 199.333L172.333 199.667L171.667 199.333M249 293L249 294C260.617 290.324 271.012 282.402 281 275.67C301.599 261.785 320.737 246.08 341 231.861C347.952 226.982 362.884 208.875 371.96 210.161C376.903 210.862 378.793 218.009 379.844 222C384.046 237.951 370.956 248.933 359.996 258.715C320.666 293.82 278.539 324.753 229 344C239.271 345.799 258.766 332.373 268 327.753C306.828 308.327 344.278 279.563 375 248.999C386.809 237.251 385.966 229.828 382.424 214C381.59 210.278 380.535 200.993 375.786 200.137C372.019 199.457 368.414 203.74 366 205.976C358.522 212.904 350.738 219.636 343 226.271C313.808 251.304 283.105 275.055 249 293M84.6667 200.333L85.3333 200.667L84.6667 200.333M174 200L175 201L174 200z"/>
<path style="fill:#f2eac4; stroke:none;" d="M1 201L1 205L2 205L1 201z"/>
<path style="fill:#efbd48; stroke:none;" d="M82 201L83 202L82 201M176 201L177 202L176 201M177 202L178 203L177 202z"/>
<path style="fill:#f2eac4; stroke:none;" d="M455 202L455 209L456 209L455 202z"/>
<path style="fill:#efbd48; stroke:none;" d="M178 203L179 204L178 203z"/>
<path style="fill:#44afd7; stroke:none;" d="M379 203L380 204L379 203z"/>
<path style="fill:#efbd48; stroke:none;" d="M79 204L80 205L79 204M179 204L180 205L179 204z"/>
<path style="fill:#080402; stroke:none;" d="M80 205L81 206L80 205z"/>
<path style="fill:#efbd48; stroke:none;" d="M180 205L181 206L180 205z"/>
<path style="fill:#44afd7; stroke:none;" d="M380 206L381 207L380 206z"/>
<path style="fill:#efbd48; stroke:none;" d="M181 207L181 210L182 210L181 207z"/>
<path style="fill:#080402; stroke:none;" d="M83 208L84 209L83 208z"/>
<path style="fill:#f2eac4; stroke:none;" d="M0 209L0 247L1 247C1 236.089 4.21125 219.036 0 209z"/>
<path style="fill:#efbd48; stroke:none;" d="M82 209L83 210L82 209z"/>
<path style="fill:#f2eac4; stroke:none;" d="M369.996 209.811C363.93 211.172 357.628 217.556 353 221.438C342.967 229.856 332.705 238.522 322 246.087C286.359 271.273 252.261 293.748 212 310.999C195.406 318.11 178.565 324.598 162 331.719C156.101 334.255 146.549 336.07 142.362 341.214C136.281 348.683 155.309 363.152 162 363.852C177.981 365.523 199.082 354.639 214 349.667C269.63 331.123 319.546 297.949 361.961 257.83C371.919 248.411 383.219 238.91 380.535 224C379.623 218.929 377.155 208.204 369.996 209.811z"/>
<path style="fill:#efbd48; stroke:none;" d="M455 209L455 213L456 213L455 209M84 210L85 211L84 210z"/>
<path style="fill:#080402; stroke:none;" d="M89.6667 210.333L90.3333 210.667L89.6667 210.333z"/>
<path style="fill:#efbd48; stroke:none;" d="M87 211L88 212L87 211z"/>
<path style="fill:#f2eac4; stroke:none;" d="M456 211L456 244L457 244L456 211z"/>
<path style="fill:#efbd48; stroke:none;" d="M91 212L91 213L94 213L91 212M97 213L97 214L101 214L97 213M105.667 214.333L106.333 214.667L105.667 214.333z"/>
<path style="fill:#44afd7; stroke:none;" d="M382 214L383 215L382 214z"/>
<path style="fill:#efbd48; stroke:none;" d="M111 215L111 216L115 216L111 215M181 215L181 218L182 218L181 215z"/>
<path style="fill:#44afd7; stroke:none;" d="M355 215L356 216L355 215z"/>
<path style="fill:#efbd48; stroke:none;" d="M117 216L117 217L122 217L117 216M126.667 217.333L127.333 217.667L126.667 217.333M131 218L131 219L135 219L131 218M137.667 219.333L138.333 219.667L137.667 219.333M140 220L141 221L140 220M180.333 220.667L180.667 221.333L180.333 220.667M142 221L143 222L142 221M143 222L144 223L143 222M144 223L145 224L144 223M179 223L180 224L179 223M145 224L146 225L145 224M146 225L147 226L146 225M178 226L179 227L178 226M147 227L147 236L148 236L147 227M177 228L178 229L177 228M176 230L177 231L176 230M175.333 232.667L175.667 233.333L175.333 232.667z"/>
<path style="fill:#44afd7; stroke:none;" d="M385 234L386 235L385 234z"/>
<path style="fill:#efbd48; stroke:none;" d="M174 235L175 236L174 235M173 237L174 238L173 237z"/>
<path style="fill:#44afd7; stroke:none;" d="M385.333 237.667L385.667 238.333L385.333 237.667z"/>
<path style="fill:#efbd48; stroke:none;" d="M146 238L147 239L146 238M172 239L173 240L172 239M145.333 240.667L145.667 241.333L145.333 240.667z"/>
<path style="fill:#44afd7; stroke:none;" d="M383 240L384 241L383 240z"/>
<path style="fill:#efbd48; stroke:none;" d="M1 241L1 251L2 251L1 241M171 241L172 242L171 241z"/>
<path style="fill:#44afd7; stroke:none;" d="M382 241L383 242L382 241M381 242L382 243L381 242z"/>
<path style="fill:#efbd48; stroke:none;" d="M455 242L455 246L456 246L455 242M144 243L145 244L144 243M170 243L171 244L170 243z"/>
<path style="fill:#44afd7; stroke:none;" d="M380 243L381 244L380 243z"/>
<path style="fill:#efbd48; stroke:none;" d="M143.333 245.667L143.667 246.333L143.333 245.667M169 245L170 246L169 245z"/>
<path style="fill:#f2eac4; stroke:none;" d="M455 246L455 253L456 253L455 246z"/>
<path style="fill:#080402; stroke:none;" d="M0 247L0 455L203 455L203 454C163.485 453.184 117.523 432.545 88 407L87 407C68.2824 422.912 40.8072 418.307 31.4684 394C28.0524 385.109 29.4922 375.711 32.696 367C34.1274 363.108 38.5156 358.262 37.6474 354C36.4107 347.929 30.4672 341.386 27.4244 336C21.8561 326.144 17.4158 315.582 13.4252 305C8.54474 292.059 5.35726 278.571 2.80401 265C1.70951 259.183 2.30824 252.45 0 247z"/>
<path style="fill:#efbd48; stroke:none;" d="M168 247L169 248L168 247M142 248L143 249L142 248M167 248L168 249L167 248M141.333 250.667L141.667 251.333L141.333 250.667M166 250L167 251L166 250z"/>
<path style="fill:#f2eac4; stroke:none;" d="M1 251L1 255L2 255L1 251z"/>
<path style="fill:#efbd48; stroke:none;" d="M2 252L2 259L3 259L2 252M165 252L166 253L165 252M454 252L454 257L455 257L454 252M140 253L141 254L140 253M164 254L165 255L164 254M139 256L140 257L139 256M163 256L164 257L163 256M162 257L163 258L162 257z"/>
<path style="fill:#f2eac4; stroke:none;" d="M454 257L454 261L455 261L454 257z"/>
<path style="fill:#efbd48; stroke:none;" d="M138 258L139 259L138 258z"/>
<path style="fill:#f2eac4; stroke:none;" d="M2 259L2 264L3 264L2 259z"/>
<path style="fill:#efbd48; stroke:none;" d="M161 259L162 260L161 259M137.333 260.667L137.667 261.333L137.333 260.667M3 261L3 265L4 265L3 261M160 261L161 262L160 261M453.333 261.667L453.667 262.333L453.333 261.667M159 262L160 263L159 262M136 263L137 264L136 263z"/>
<path style="fill:#f2eac4; stroke:none;" d="M453 263L453 268L454 268L453 263z"/>
<path style="fill:#efbd48; stroke:none;" d="M158 264L159 265L158 264z"/>
<path style="fill:#f2eac4; stroke:none;" d="M3 265L3 269L4 269L3 265z"/>
<path style="fill:#efbd48; stroke:none;" d="M135.333 265.667L135.667 266.333L135.333 265.667M157 265L158 266L157 265M4 267L4 271L5 271L4 267M156 267L157 268L156 267M452.333 267.667L452.667 268.333L452.333 267.667M134 268L135 269L134 268M155 268L156 269L155 268z"/>
<path style="fill:#f2eac4; stroke:none;" d="M452 269L452 273L453 273L452 269z"/>
<path style="fill:#efbd48; stroke:none;" d="M154 270L155 271L154 270z"/>
<path style="fill:#f2eac4; stroke:none;" d="M4 271L4 274L5 274L4 271z"/>
<path style="fill:#efbd48; stroke:none;" d="M133 271L134 272L133 271M153 271L154 272L153 271M5 272L5 276L6 276L5 272M451 272L451 275L452 275L451 272M132 273L133 274L132 273M152 273L153 274L152 273M151 274L152 275L151 274M131.333 275.667L131.667 276.333L131.333 275.667M150 275L151 276L150 275z"/>
<path style="fill:#f2eac4; stroke:none;" d="M451.333 275.667L451.667 276.333L451.333 275.667M5 276L5 279L6 279L5 276z"/>
<path style="fill:#efbd48; stroke:none;" d="M450.333 277.667L450.667 278.333L450.333 277.667M6.33333 278.667L6.66667 279.333L6.33333 278.667M130 278L131 279L130 278M148 278L149 279L148 278M147 279L148 280L147 279z"/>
<path style="fill:#f2eac4; stroke:none;" d="M450 279L450 282L451 282L450 279M6 280L6 283L7 283L6 280z"/>
<path style="fill:#efbd48; stroke:none;" d="M129.333 280.667L129.667 281.333L129.333 280.667M146 280L147 281L146 280M449.333 281.667L449.667 282.333L449.333 281.667M7.33333 282.667L7.66667 283.333L7.33333 282.667z"/>
<path style="fill:#080402; stroke:none;" d="M130 282L131 283L130 282z"/>
<path style="fill:#efbd48; stroke:none;" d="M145 282L146 283L145 282M128 283L128 287L129 287L128 283M144 283L145 284L144 283z"/>
<path style="fill:#f2eac4; stroke:none;" d="M449.333 283.667L449.667 284.333L449.333 283.667M7.33333 284.667L7.66667 285.333L7.33333 284.667z"/>
<path style="fill:#efbd48; stroke:none;" d="M143 284L144 285L143 284M8 285L8 288L9 288L8 285M142 285L143 286L142 285M448.333 285.667L448.667 286.333L448.333 285.667M141 286L142 287L141 286M140 287L141 288L140 287z"/>
<path style="fill:#f2eac4; stroke:none;" d="M448.333 287.667L448.667 288.333L448.333 287.667M8 288L9 294L10 294L8 288z"/>
<path style="fill:#efbd48; stroke:none;" d="M9.33333 289.667L9.66667 290.333L9.33333 289.667M127 289L128 290L127 289M139 289L140 290L139 289M447 289L448 290L447 289M138 290L139 291L138 290z"/>
<path style="fill:#f2eac4; stroke:none;" d="M447 290L447 293L448 293L447 290z"/>
<path style="fill:#efbd48; stroke:none;" d="M128.333 291.667L128.667 292.333L128.333 291.667M136.667 291.333L137.333 291.667L136.667 291.333z"/>
<path style="fill:#080402; stroke:none;" d="M131 292L132 293L131 292z"/>
<path style="fill:#efbd48; stroke:none;" d="M135 292L136 293L135 292M446.333 292.667L446.667 293.333L446.333 292.667M10.3333 293.667L10.6667 294.333L10.3333 293.667M129 293L130 294L129 293M132 293L132 294L135 294L132 293M247 294L248 295L247 294z"/>
<path style="fill:#f2eac4; stroke:none;" d="M446.333 294.667L446.667 295.333L446.333 294.667M10.3333 295.667L10.6667 296.333L10.3333 295.667z"/>
<path style="fill:#efbd48; stroke:none;" d="M245.667 295.333L246.333 295.667L245.667 295.333M445.333 295.667L445.667 296.333L445.333 295.667M11.3333 296.667L11.6667 297.333L11.3333 296.667M243 296L244 297L243 296M238 298L238 299L242 298L238 298z"/>
<path style="fill:#f2eac4; stroke:none;" d="M445.333 297.667L445.667 298.333L445.333 297.667M11.3333 298.667L11.6667 299.333L11.3333 298.667z"/>
<path style="fill:#efbd48; stroke:none;" d="M12.3333 299.667L12.6667 300.333L12.3333 299.667M230 302L230 303L238 300L230 302M444 299L445 300L444 299z"/>
<path style="fill:#f2eac4; stroke:none;" d="M444.333 300.667L444.667 301.333L444.333 300.667M12.3333 301.667L12.6667 302.333L12.3333 301.667z"/>
<path style="fill:#efbd48; stroke:none;" d="M13.3333 302.667L13.6667 303.333L13.3333 302.667M443 302L444 303L443 302M228.667 303.333L229.333 303.667L228.667 303.333z"/>
<path style="fill:#f2eac4; stroke:none;" d="M443.333 303.667L443.667 304.333L443.333 303.667M13.3333 304.667L13.6667 305.333L13.3333 304.667z"/>
<path style="fill:#efbd48; stroke:none;" d="M226.667 304.333L227.333 304.667L226.667 304.333M442.333 304.667L442.667 305.333L442.333 304.667M14.3333 305.667L14.6667 306.333L14.3333 305.667M223.667 305.333L224.333 305.667L223.667 305.333M221.667 306.333L222.333 306.667L221.667 306.333z"/>
<path style="fill:#f2eac4; stroke:none;" d="M442 306L443 307L442 306M14 307L15 308L14 307z"/>
<path style="fill:#efbd48; stroke:none;" d="M219 307L220 308L219 307M441 307L442 308L441 307M15 308L16 309L15 308M217 308L218 309L217 308z"/>
<path style="fill:#f2eac4; stroke:none;" d="M441.333 308.667L441.667 309.333L441.333 308.667M15.3333 309.667L15.6667 310.333L15.3333 309.667z"/>
<path style="fill:#44afd7; stroke:none;" d="M102 309C84.9642 322.095 66.0894 332.719 49 345.749C24.9202 364.11 21.4678 413.207 60 415.91C102.666 418.904 103 369.887 103 340C103 330.94 105.507 317.357 102 309z"/>
<path style="fill:#efbd48; stroke:none;" d="M214.667 309.333L215.333 309.667L214.667 309.333M16.3333 310.667L16.6667 311.333L16.3333 310.667M212.667 310.333L213.333 310.667L212.667 310.333M440 310L441 311L440 310M209.667 311.333L210.333 311.667L209.667 311.333z"/>
<path style="fill:#f2eac4; stroke:none;" d="M440.333 311.667L440.667 312.333L440.333 311.667M16 312L17 313L16 312z"/>
<path style="fill:#efbd48; stroke:none;" d="M207.667 312.333L208.333 312.667L207.667 312.333M439.333 312.667L439.667 313.333L439.333 312.667M17 313L18 314L17 313M205.667 313.333L206.333 313.667L205.667 313.333z"/>
<path style="fill:#f2eac4; stroke:none;" d="M17 314L18 318L19 318L17 314z"/>
<path style="fill:#efbd48; stroke:none;" d="M202.667 314.333L203.333 314.667L202.667 314.333z"/>
<path style="fill:#f2eac4; stroke:none;" d="M439 314L440 315L439 314z"/>
<path style="fill:#efbd48; stroke:none;" d="M18 315L19 316L18 315M200.667 315.333L201.333 315.667L200.667 315.333M438 315L439 316L438 315M226 347L226 346C205.41 349.041 184.157 364.964 163 363.776C155.651 363.364 136.143 347.649 144.103 340.394C148.503 336.383 155.604 334.84 161 332.576C173.908 327.159 187.042 322.316 200 317C194.918 315.591 187.816 319.978 183 321.808C170.844 326.426 158.315 329.944 146 334.076C141.926 335.442 130.752 336.983 131.662 343.019C132.421 348.058 138.45 351.623 141.715 355C146.2 359.64 153.213 367.532 160 368.397C165.759 369.13 173.506 365.031 179 363.424C194.975 358.752 210.207 352.148 226 347z"/>
<path style="fill:#f2eac4; stroke:none;" d="M438 316L437 320L438 320L438 316z"/>
<path style="fill:#efbd48; stroke:none;" d="M19.3333 317.667L19.6667 318.333L19.3333 317.667M437 317L438 318L437 317z"/>
<path style="fill:#f2eac4; stroke:none;" d="M19 319L20 320L19 319z"/>
<path style="fill:#efbd48; stroke:none;" d="M436.333 319.667L436.667 320.333L436.333 319.667M20 320L21 321L20 320z"/>
<path style="fill:#f2eac4; stroke:none;" d="M20 321L28 338L29 338L20 321z"/>
<path style="fill:#080402; stroke:none;" d="M150 321L151 322L150 321z"/>
<path style="fill:#f2eac4; stroke:none;" d="M436 321L437 322L436 321z"/>
<path style="fill:#efbd48; stroke:none;" d="M21 322L22 323L21 322M435 322L436 323L435 322z"/>
<path style="fill:#080402; stroke:none;" d="M143 323L144 324L143 323z"/>
<path style="fill:#f2eac4; stroke:none;" d="M435 323L436 324L435 323z"/>
<path style="fill:#efbd48; stroke:none;" d="M22 324L23 325L22 324z"/>
<path style="fill:#080402; stroke:none;" d="M140 324L141 325L140 324z"/>
<path style="fill:#efbd48; stroke:none;" d="M434 324L435 325L434 324z"/>
<path style="fill:#f2eac4; stroke:none;" d="M434 325L435 326L434 325z"/>
<path style="fill:#efbd48; stroke:none;" d="M23 326L24 327L23 326z"/>
<path style="fill:#080402; stroke:none;" d="M132.667 326.333L133.333 326.667L132.667 326.333z"/>
<path style="fill:#efbd48; stroke:none;" d="M433 326L434 327L433 326z"/>
<path style="fill:#080402; stroke:none;" d="M129.667 327.333L130.333 327.667L129.667 327.333z"/>
<path style="fill:#f2eac4; stroke:none;" d="M433 327L434 328L433 327z"/>
<path style="fill:#efbd48; stroke:none;" d="M24 328L25 329L24 328z"/>
<path style="fill:#f2eac4; stroke:none;" d="M88.9954 328.708C78.5304 330.996 64.6796 346.349 63.473 357C62.6749 364.045 74.2033 372.986 80.9853 371.204C92.1992 368.257 94.8826 350.547 94.9961 341C95.0487 336.585 96.178 327.137 88.9954 328.708z"/>
<path style="fill:#080402; stroke:none;" d="M126 328L127 329L126 328z"/>
<path style="fill:#efbd48; stroke:none;" d="M432 328L433 329L432 328z"/>
<path style="fill:#080402; stroke:none;" d="M116 335L117 335L124 330C120.001 328.953 117.68 331.595 116 335z"/>
<path style="fill:#f2eac4; stroke:none;" d="M432 329L433 330L432 329z"/>
<path style="fill:#efbd48; stroke:none;" d="M25 330L26 331L25 330M431 330L432 331L431 330z"/>
<path style="fill:#f2eac4; stroke:none;" d="M431 331L432 332L431 331z"/>
<path style="fill:#efbd48; stroke:none;" d="M26 332L27 333L26 332M430 332L431 333L430 332z"/>
<path style="fill:#f2eac4; stroke:none;" d="M430 333L431 334L430 333z"/>
<path style="fill:#efbd48; stroke:none;" d="M27 334L28 335L27 334M429 334L430 335L429 334z"/>
<path style="fill:#44afd7; stroke:none;" d="M142 335L143 336L142 335z"/>
<path style="fill:#f2eac4; stroke:none;" d="M429 335L430 336L429 335z"/>
<path style="fill:#efbd48; stroke:none;" d="M28 336L29 337L28 336z"/>
<path style="fill:#080402; stroke:none;" d="M115 336L116 341L117 341L115 336z"/>
<path style="fill:#44afd7; stroke:none;" d="M138 336L139 337L138 336z"/>
<path style="fill:#efbd48; stroke:none;" d="M428 336L429 337L428 336z"/>
<path style="fill:#44afd7; stroke:none;" d="M135 337L136 338L135 337z"/>
<path style="fill:#f2eac4; stroke:none;" d="M428 337L429 338L428 337z"/>
<path style="fill:#efbd48; stroke:none;" d="M29 338L30 339L29 338z"/>
<path style="fill:#44afd7; stroke:none;" d="M132 338L133 339L132 338z"/>
<path style="fill:#efbd48; stroke:none;" d="M427 338L426 340L427 338z"/>
<path style="fill:#f2eac4; stroke:none;" d="M29 339L30 340L29 339z"/>
<path style="fill:#44afd7; stroke:none;" d="M127 340L133 347L132 339L127 340z"/>
<path style="fill:#f2eac4; stroke:none;" d="M427 339L428 340L427 339z"/>
<path style="fill:#efbd48; stroke:none;" d="M30 340L32 342L30 340z"/>
<path style="fill:#f2eac4; stroke:none;" d="M426 340L427 341L426 340M30 341L31 342L30 341z"/>
<path style="fill:#efbd48; stroke:none;" d="M425 341L426 342L425 341z"/>
<path style="fill:#f2eac4; stroke:none;" d="M31 342L33 345L31 342M425 342L426 343L425 342z"/>
<path style="fill:#efbd48; stroke:none;" d="M32 343L33 344L32 343z"/>
<path style="fill:#a65d1f; stroke:none;" d="M52 343L53 344L52 343z"/>
<path style="fill:#efbd48; stroke:none;" d="M424 343L425 344L424 343z"/>
<path style="fill:#f2eac4; stroke:none;" d="M424 344L425 345L424 344z"/>
<path style="fill:#efbd48; stroke:none;" d="M33 345L35 347L33 345z"/>
<path style="fill:#a65d1f; stroke:none;" d="M49 345L50 346L49 345z"/>
<path style="fill:#080402; stroke:none;" d="M119 345L120 346L119 345z"/>
<path style="fill:#efbd48; stroke:none;" d="M226.667 345.333L227.333 345.667L226.667 345.333z"/>
<path style="fill:#f2eac4; stroke:none;" d="M423 345L422 348L423 345M33 346L34 347L33 346z"/>
<path style="fill:#efbd48; stroke:none;" d="M422 346L423 347L422 346z"/>
<path style="fill:#f2eac4; stroke:none;" d="M34 347L35 348L34 347z"/>
<path style="fill:#44afd7; stroke:none;" d="M133 347L134 348L133 347z"/>
<path style="fill:#efbd48; stroke:none;" d="M35 348L36 349L35 348z"/>
<path style="fill:#44afd7; stroke:none;" d="M134 348L135 349L134 348z"/>
<path style="fill:#efbd48; stroke:none;" d="M421 348L420 350L421 348z"/>
<path style="fill:#f2eac4; stroke:none;" d="M35 349L36 350L35 349z"/>
<path style="fill:#44afd7; stroke:none;" d="M135 349L136 350L135 349z"/>
<path style="fill:#f2eac4; stroke:none;" d="M421 349L422 350L421 349z"/>
<path style="fill:#efbd48; stroke:none;" d="M36 350L38 352L36 350z"/>
<path style="fill:#44afd7; stroke:none;" d="M136 350L137 351L136 350z"/>
<path style="fill:#f2eac4; stroke:none;" d="M420 350L421 351L420 350M36 351L37 352L36 351z"/>
<path style="fill:#080402; stroke:none;" d="M134 351L135 352L134 351z"/>
<path style="fill:#44afd7; stroke:none;" d="M137 351L143 356L137 351z"/>
<path style="fill:#efbd48; stroke:none;" d="M419 351L420 352L419 351z"/>
<path style="fill:#f2eac4; stroke:none;" d="M37 352L38 353L37 352M419 352L420 353L419 352z"/>
<path style="fill:#efbd48; stroke:none;" d="M38 353L40 355L38 353z"/>
<path style="fill:#f2eac4; stroke:none;" d="M418 353L419 354L418 353M38 354L39 355L38 354z"/>
<path style="fill:#efbd48; stroke:none;" d="M417 354L418 355L417 354z"/>
<path style="fill:#f2eac4; stroke:none;" d="M39 355L40 356L39 355M417 355L418 356L417 355M38 356L39 357L38 356M416 356L417 357L416 356M37.3333 357.667L37.6667 358.333L37.3333 357.667z"/>
<path style="fill:#efbd48; stroke:none;" d="M415 357L414 359L415 357z"/>
<path style="fill:#f2eac4; stroke:none;" d="M415 358L416 359L415 358M36 359L37 360L36 359z"/>
<path style="fill:#44afd7; stroke:none;" d="M146 359L147 360L146 359z"/>
<path style="fill:#f2eac4; stroke:none;" d="M414 359L415 360L414 359M35.3333 360.667L35.6667 361.333L35.3333 360.667z"/>
<path style="fill:#44afd7; stroke:none;" d="M147 360L148 361L147 360z"/>
<path style="fill:#efbd48; stroke:none;" d="M413 360L412 362L413 360z"/>
<path style="fill:#f2eac4; stroke:none;" d="M413 361L414 362L413 361M34.3333 362.667L34.6667 363.333L34.3333 362.667M412 362L413 363L412 362z"/>
<path style="fill:#44afd7; stroke:none;" d="M151 363L152 364L151 363z"/>
<path style="fill:#f2eac4; stroke:none;" d="M411 363L412 364L411 363M33.3333 364.667L33.6667 365.333L33.3333 364.667z"/>
<path style="fill:#44afd7; stroke:none;" d="M152 364L153 365L152 364z"/>
<path style="fill:#efbd48; stroke:none;" d="M410 364L409 366L410 364z"/>
<path style="fill:#f2eac4; stroke:none;" d="M410 365L411 366L410 365z"/>
<path style="fill:#44afd7; stroke:none;" d="M155 366L156 367L155 366M168 366L169 367L168 366z"/>
<path style="fill:#f2eac4; stroke:none;" d="M409 366L410 367L409 366M32.3333 367.667L32.6667 368.333L32.3333 367.667M408 367L409 368L408 367z"/>
<path style="fill:#44afd7; stroke:none;" d="M158 368L159 369L158 368z"/>
<path style="fill:#efbd48; stroke:none;" d="M407 368L408 369L407 368M406 369L405 371L406 369z"/>
<path style="fill:#f2eac4; stroke:none;" d="M31.3333 370.667L31.6667 371.333L31.3333 370.667M406 370L407 371L406 370M405 371L406 372L405 371z"/>
<path style="fill:#a65d1f; stroke:none;" d="M102.333 372.667L102.667 373.333L102.333 372.667z"/>
<path style="fill:#f2eac4; stroke:none;" d="M404 372L405 373L404 372M30 373L30 378L31 378L30 373M403 373L404 374L403 373z"/>
<path style="fill:#efbd48; stroke:none;" d="M402 374L400 377L402 374z"/>
<path style="fill:#f2eac4; stroke:none;" d="M402 375L403 376L402 375M401 376L402 377L401 376M400 377L401 378L400 377M399 378L400 379L399 378M398 379L399 380L398 379M29 380L29 386L30 386L29 380z"/>
<path style="fill:#a65d1f; stroke:none;" d="M101 380L102 381L101 380z"/>
<path style="fill:#f2eac4; stroke:none;" d="M397 380L398 381L397 380M396 381L397 382L396 381z"/>
<path style="fill:#efbd48; stroke:none;" d="M395 382L396 383L395 382M394 383L395 384L394 383z"/>
<path style="fill:#a65d1f; stroke:none;" d="M100.333 384.667L100.667 385.333L100.333 384.667z"/>
<path style="fill:#efbd48; stroke:none;" d="M393 384L391 387L393 384z"/>
<path style="fill:#f2eac4; stroke:none;" d="M393 385L394 386L393 385M392 386L393 387L392 386M30 387L30 392L31 392L30 387z"/>
<path style="fill:#a65d1f; stroke:none;" d="M99.3333 387.667L99.6667 388.333L99.3333 387.667z"/>
<path style="fill:#efbd48; stroke:none;" d="M390 387L388 390L390 387z"/>
<path style="fill:#f2eac4; stroke:none;" d="M390 388L391 389L390 388M389 389L390 390L389 389z"/>
<path style="fill:#efbd48; stroke:none;" d="M387 390L385 393L387 390z"/>
<path style="fill:#f2eac4; stroke:none;" d="M387 391L388 392L387 391M386 392L387 393L386 392M31.3333 393.667L31.6667 394.333L31.3333 393.667z"/>
<path style="fill:#efbd48; stroke:none;" d="M384 393L385 394L384 393M383 394L384 395L383 394z"/>
<path style="fill:#f2eac4; stroke:none;" d="M382 395L383 396L382 395M32 396L33 397L32 396M381 396L382 397L381 396M380 397L381 398L380 397M33 398L34 399L33 398z"/>
<path style="fill:#efbd48; stroke:none;" d="M378 398L375 402L378 398z"/>
<path style="fill:#f2eac4; stroke:none;" d="M379 398L380 399L379 398M34.3333 399.667L34.6667 400.333L34.3333 399.667M378 399L379 400L378 399M377 400L378 401L377 400M35 401L36 402L35 401M376 401L377 402L376 401M36.3333 402.667L36.6667 403.333L36.3333 402.667M374 402L375 403L374 402M373 403L374 404L373 403M37 404L38 405L37 404z"/>
<path style="fill:#efbd48; stroke:none;" d="M371 404L370 406L371 404z"/>
<path style="fill:#f2eac4; stroke:none;" d="M372 404L373 405L372 404M38 405L39 406L38 405M371 405L372 406L371 405M39 406L40 407L39 406z"/>
<path style="fill:#efbd48; stroke:none;" d="M87 406L88 407L87 406M369 406L370 407L369 406z"/>
<path style="fill:#f2eac4; stroke:none;" d="M40 407L41 408L40 407M86 407L87 408L86 407z"/>
<path style="fill:#efbd48; stroke:none;" d="M88 407L89 408L88 407M367 407L365 410L367 407z"/>
<path style="fill:#f2eac4; stroke:none;" d="M368 407L369 408L368 407M41 408L42 409L41 408M85 408L86 409L85 408M89 408L91 410L89 408z"/>
<path style="fill:#efbd48; stroke:none;" d="M90 408L91 409L90 408z"/>
<path style="fill:#f2eac4; stroke:none;" d="M367 408L368 409L367 408M42 409L43 410L42 409M84 409L85 410L84 409z"/>
<path style="fill:#efbd48; stroke:none;" d="M91 409L92 410L91 409z"/>
<path style="fill:#f2eac4; stroke:none;" d="M366 409L367 410L366 409M43 410L44 411L43 410M82 410L83 411L82 410z"/>
<path style="fill:#efbd48; stroke:none;" d="M92 410L93 411L92 410z"/>
<path style="fill:#f2eac4; stroke:none;" d="M364 410L365 411L364 410M45 411L46 412L45 411M81 411L82 412L81 411M93 411L95 413L93 411z"/>
<path style="fill:#efbd48; stroke:none;" d="M94 411L95 412L94 411M362 411L363 412L362 411z"/>
<path style="fill:#f2eac4; stroke:none;" d="M363 411L364 412L363 411M46 412L47 413L46 412M79 412L80 413L79 412z"/>
<path style="fill:#efbd48; stroke:none;" d="M95 412L96 413L95 412z"/>
<path style="fill:#f2eac4; stroke:none;" d="M361 412L362 413L361 412M48.6667 413.333L49.3333 413.667L48.6667 413.333M77 413L78 414L77 413M96 413L97 414L96 413z"/>
<path style="fill:#efbd48; stroke:none;" d="M359 413L358 415L359 413z"/>
<path style="fill:#f2eac4; stroke:none;" d="M360 413L361 414L360 413M50.6667 414.333L51.3333 414.667L50.6667 414.333M75 414L76 415L75 414M97 414L98 415L97 414z"/>
<path style="fill:#efbd48; stroke:none;" d="M98 414L99 415L98 414z"/>
<path style="fill:#f2eac4; stroke:none;" d="M359 414L360 415L359 414M53 415L53 416L57 416L53 415M72.6667 415.333L73.3333 415.667L72.6667 415.333z"/>
<path style="fill:#efbd48; stroke:none;" d="M99 415L100 416L99 415M356 415L355 417L356 415z"/>
<path style="fill:#f2eac4; stroke:none;" d="M357 415L358 416L357 415M58 416L58 417L71 417L58 416M100 416L102 418L100 416z"/>
<path style="fill:#efbd48; stroke:none;" d="M101 416L102 417L101 416z"/>
<path style="fill:#f2eac4; stroke:none;" d="M356 416L357 417L356 416z"/>
<path style="fill:#efbd48; stroke:none;" d="M102 417L103 418L102 417M353 417L352 419L353 417z"/>
<path style="fill:#f2eac4; stroke:none;" d="M354 417L355 418L354 417M103 418L106 420L106 419L103 418z"/>
<path style="fill:#efbd48; stroke:none;" d="M104 418L105 419L104 418z"/>
<path style="fill:#f2eac4; stroke:none;" d="M353 418L354 419L353 418z"/>
<path style="fill:#efbd48; stroke:none;" d="M350 419L349 421L350 419z"/>
<path style="fill:#f2eac4; stroke:none;" d="M351 419L352 420L351 419M106 420L107 421L106 420z"/>
<path style="fill:#efbd48; stroke:none;" d="M107 420L108 421L107 420z"/>
<path style="fill:#f2eac4; stroke:none;" d="M350 420L351 421L350 420M108 421L110 423L108 421z"/>
<path style="fill:#efbd48; stroke:none;" d="M109 421L110 422L109 421M347 421L348 422L347 421z"/>
<path style="fill:#f2eac4; stroke:none;" d="M348 421L349 422L348 421z"/>
<path style="fill:#efbd48; stroke:none;" d="M110 422L111 423L110 422z"/>
<path style="fill:#f2eac4; stroke:none;" d="M346 422L347 423L346 422M111 423L112 424L111 423z"/>
<path style="fill:#efbd48; stroke:none;" d="M112 423L113 424L112 423M344 423L345 424L344 423z"/>
<path style="fill:#f2eac4; stroke:none;" d="M345 423L346 424L345 423M113 424L115 426L113 424z"/>
<path style="fill:#efbd48; stroke:none;" d="M114 424L115 425L114 424M342 424L343 425L342 424z"/>
<path style="fill:#f2eac4; stroke:none;" d="M343 424L344 425L343 424z"/>
<path style="fill:#efbd48; stroke:none;" d="M115 425L116 426L115 425M340 425L341 426L340 425z"/>
<path style="fill:#f2eac4; stroke:none;" d="M341 425L342 426L341 425M116 426L117 427L116 426z"/>
<path style="fill:#efbd48; stroke:none;" d="M117 426L118 427L117 426M338 426L337 428L338 426z"/>
<path style="fill:#f2eac4; stroke:none;" d="M339 426L340 427L339 426M118 427L119 428L118 427z"/>
<path style="fill:#efbd48; stroke:none;" d="M119 427L120 428L119 427z"/>
<path style="fill:#f2eac4; stroke:none;" d="M338 427L339 428L338 427M120 428L121 429L120 428z"/>
<path style="fill:#efbd48; stroke:none;" d="M121 428L122 429L121 428M335 428L336 429L335 428z"/>
<path style="fill:#f2eac4; stroke:none;" d="M336 428L337 429L336 428M122 429L122 430L127 432L127 431L122 429z"/>
<path style="fill:#efbd48; stroke:none;" d="M123 429L124 430L123 429M333 429L334 430L333 429z"/>
<path style="fill:#f2eac4; stroke:none;" d="M334 429L335 430L334 429z"/>
<path style="fill:#efbd48; stroke:none;" d="M125 430L126 431L125 430M331 430L332 431L331 430z"/>
<path style="fill:#f2eac4; stroke:none;" d="M332 430L333 431L332 430z"/>
<path style="fill:#efbd48; stroke:none;" d="M127 431L128 432L127 431M329 431L330 432L329 431z"/>
<path style="fill:#f2eac4; stroke:none;" d="M330 431L331 432L330 431M128 432L131 434L131 433L128 432z"/>
<path style="fill:#efbd48; stroke:none;" d="M129 432L130 433L129 432M327 432L328 433L327 432z"/>
<path style="fill:#f2eac4; stroke:none;" d="M328 432L329 433L328 432z"/>
<path style="fill:#efbd48; stroke:none;" d="M131 433L132 434L131 433M325 433L326 434L325 433z"/>
<path style="fill:#f2eac4; stroke:none;" d="M326 433L327 434L326 433M132 434L133 435L132 434z"/>
<path style="fill:#efbd48; stroke:none;" d="M133 434L134 435L133 434M323 434L324 435L323 434z"/>
<path style="fill:#f2eac4; stroke:none;" d="M324 434L325 435L324 434M134 435L135 436L134 435z"/>
<path style="fill:#efbd48; stroke:none;" d="M135 435L136 436L135 435M320.667 435.333L321.333 435.667L320.667 435.333z"/>
<path style="fill:#f2eac4; stroke:none;" d="M322 435L323 436L322 435M136 436L136 437L140 438L140 437L136 436z"/>
<path style="fill:#efbd48; stroke:none;" d="M138 436L139 437L138 436M318 436L319 437L318 436z"/>
<path style="fill:#f2eac4; stroke:none;" d="M319.667 436.333L320.333 436.667L319.667 436.333z"/>
<path style="fill:#efbd48; stroke:none;" d="M140 437L141 438L140 437M316 437L317 438L316 437z"/>
<path style="fill:#f2eac4; stroke:none;" d="M317 437L318 438L317 437M141 438L142 439L141 438z"/>
<path style="fill:#efbd48; stroke:none;" d="M142.667 438.333L143.333 438.667L142.667 438.333M313.667 438.333L314.333 438.667L313.667 438.333z"/>
<path style="fill:#f2eac4; stroke:none;" d="M315 438L316 439L315 438M143.667 439.333L144.333 439.667L143.667 439.333z"/>
<path style="fill:#efbd48; stroke:none;" d="M145 439L146 440L145 439M311 439L312 440L311 439z"/>
<path style="fill:#f2eac4; stroke:none;" d="M312.667 439.333L313.333 439.667L312.667 439.333M146 440L147 441L146 440z"/>
<path style="fill:#efbd48; stroke:none;" d="M147.667 440.333L148.333 440.667L147.667 440.333M308 440L309 441L308 440z"/>
<path style="fill:#f2eac4; stroke:none;" d="M309.667 440.333L310.333 440.667L309.667 440.333M149 441L150 442L149 441z"/>
<path style="fill:#efbd48; stroke:none;" d="M150 441L151 442L150 441M305.667 441.333L306.333 441.667L305.667 441.333z"/>
<path style="fill:#f2eac4; stroke:none;" d="M307 441L308 442L307 441M151.667 442.333L152.333 442.667L151.667 442.333z"/>
<path style="fill:#efbd48; stroke:none;" d="M153 442L154 443L153 442M303 442L304 443L303 442z"/>
<path style="fill:#f2eac4; stroke:none;" d="M304.667 442.333L305.333 442.667L304.667 442.333M154.667 443.333L155.333 443.667L154.667 443.333z"/>
<path style="fill:#efbd48; stroke:none;" d="M156 443L157 444L156 443M300 443L301 444L300 443z"/>
<path style="fill:#f2eac4; stroke:none;" d="M301.667 443.333L302.333 443.667L301.667 443.333M157.667 444.333L158.333 444.667L157.667 444.333z"/>
<path style="fill:#efbd48; stroke:none;" d="M159.667 444.333L160.333 444.667L159.667 444.333M297 444L298 445L297 444z"/>
<path style="fill:#f2eac4; stroke:none;" d="M298.667 444.333L299.333 444.667L298.667 444.333M160.667 445.333L161.333 445.667L160.667 445.333z"/>
<path style="fill:#efbd48; stroke:none;" d="M162.667 445.333L163.333 445.667L162.667 445.333M293.667 445.333L294.333 445.667L293.667 445.333z"/>
<path style="fill:#f2eac4; stroke:none;" d="M295.667 445.333L296.333 445.667L295.667 445.333M163 446L163 447L166 447L163 446z"/>
<path style="fill:#efbd48; stroke:none;" d="M166 446L167 447L166 446M290 446L291 447L290 446z"/>
<path style="fill:#f2eac4; stroke:none;" d="M291 446L291 447L294 447L291 446M167.667 447.333L168.333 447.667L167.667 447.333z"/>
<path style="fill:#efbd48; stroke:none;" d="M169.667 447.333L170.333 447.667L169.667 447.333M286.667 447.333L287.333 447.667L286.667 447.333z"/>
<path style="fill:#f2eac4; stroke:none;" d="M288.667 447.333L289.333 447.667L288.667 447.333M170 448L170 449L173 449L170 448z"/>
<path style="fill:#efbd48; stroke:none;" d="M173.667 448.333L174.333 448.667L173.667 448.333M282.667 448.333L283.333 448.667L282.667 448.333z"/>
<path style="fill:#f2eac4; stroke:none;" d="M284 448L284 449L287 449L284 448M174 449L174 450L177 450L174 449z"/>
<path style="fill:#efbd48; stroke:none;" d="M177.667 449.333L178.333 449.667L177.667 449.333M278.667 449.333L279.333 449.667L278.667 449.333z"/>
<path style="fill:#f2eac4; stroke:none;" d="M280 449L280 450L283 450L280 449M179.667 450.333L180.333 450.667L179.667 450.333z"/>
<path style="fill:#efbd48; stroke:none;" d="M181 450L181 451L184 451L181 450M273 450L273 451L276 451L273 450z"/>
<path style="fill:#f2eac4; stroke:none;" d="M276.667 450.333L277.333 450.667L276.667 450.333M183 451L183 452L187 452L183 451z"/>
<path style="fill:#efbd48; stroke:none;" d="M187.667 451.333L188.333 451.667L187.667 451.333M268.667 451.333L269.333 451.667L268.667 451.333z"/>
<path style="fill:#f2eac4; stroke:none;" d="M270 451L270 452L274 452L270 451M188 452L188 453L193 453L188 452z"/>
<path style="fill:#efbd48; stroke:none;" d="M193.667 452.333L194.333 452.667L193.667 452.333M262 452L262 453L265 453L262 452z"/>
<path style="fill:#f2eac4; stroke:none;" d="M265 452L265 453L269 453L265 452M196 453L196 454L199 454L196 453z"/>
<path style="fill:#efbd48; stroke:none;" d="M199 453L199 454L204 454L199 453M254 453L254 454L258 454L254 453z"/>
<path style="fill:#f2eac4; stroke:none;" d="M258 453L258 454L261 454L258 453M203 454L203 455L210 455L203 454z"/>
<path style="fill:#efbd48; stroke:none;" d="M210 454L210 455L213 455L210 454M244 454L244 455L247 455L244 454z"/>
<path style="fill:#f2eac4; stroke:none;" d="M247 454L247 455L255 455L247 454z"/>
</svg>
